<?xml version="1.0" encoding="UTF-8" standalone="no"?>
<svg width="1000" height="1000" viewBox="0 0 1000 1000" xmlns="http://www.w3.org/2000/svg">
  <g fill="none" stroke="#4D8BF9" stroke-width="1.5" opacity="0.7">
    <!-- Base geodesic dome lines -->
    <circle cx="500" cy="500" r="450" stroke-width="1" stroke-opacity="0.2"/>
    
    <!-- Vertical lines -->
    <line x1="500" y1="50" x2="500" y2="950" stroke-opacity="0.3"/>
    <line x1="50" y1="500" x2="950" y2="500" stroke-opacity="0.3"/>
    
    <!-- Geodesic dome structure -->
    <!-- Horizontal circles -->
    <circle cx="500" cy="500" r="350" stroke-width="1" stroke-opacity="0.4"/>
    <circle cx="500" cy="500" r="250" stroke-width="1" stroke-opacity="0.6"/>
    <circle cx="500" cy="500" r="150" stroke-width="1" stroke-opacity="0.8"/>
    
    <!-- Diagonal lines -->
    <!-- First quadrant -->
    <line x1="500" y1="500" x2="850" y2="500" stroke-width="1"/>
    <line x1="500" y1="500" x2="800" y2="350" stroke-width="1"/>
    <line x1="500" y1="500" x2="750" y2="250" stroke-width="1"/>
    <line x1="500" y1="500" x2="650" y2="150" stroke-width="1"/>
    <line x1="500" y1="500" x2="500" y2="150" stroke-width="1"/>
    
    <!-- Second quadrant -->
    <line x1="500" y1="500" x2="150" y2="500" stroke-width="1"/>
    <line x1="500" y1="500" x2="200" y2="350" stroke-width="1"/>
    <line x1="500" y1="500" x2="250" y2="250" stroke-width="1"/>
    <line x1="500" y1="500" x2="350" y2="150" stroke-width="1"/>
    
    <!-- Third quadrant -->
    <line x1="500" y1="500" x2="150" y2="500" stroke-width="1"/>
    <line x1="500" y1="500" x2="200" y2="650" stroke-width="1"/>
    <line x1="500" y1="500" x2="250" y2="750" stroke-width="1"/>
    <line x1="500" y1="500" x2="350" y2="850" stroke-width="1"/>
    <line x1="500" y1="500" x2="500" y2="850" stroke-width="1"/>
    
    <!-- Fourth quadrant -->
    <line x1="500" y1="500" x2="850" y2="500" stroke-width="1"/>
    <line x1="500" y1="500" x2="800" y2="650" stroke-width="1"/>
    <line x1="500" y1="500" x2="750" y2="750" stroke-width="1"/>
    <line x1="500" y1="500" x2="650" y2="850" stroke-width="1"/>
    
    <!-- Additional diagonal grid lines -->
    <line x1="350" y1="150" x2="650" y2="150" stroke-width="1"/>
    <line x1="250" y1="250" x2="750" y2="250" stroke-width="1"/>
    <line x1="200" y1="350" x2="800" y2="350" stroke-width="1"/>
    <line x1="200" y1="650" x2="800" y2="650" stroke-width="1"/>
    <line x1="250" y1="750" x2="750" y2="750" stroke-width="1"/>
    <line x1="350" y1="850" x2="650" y2="850" stroke-width="1"/>
    
    <!-- Arcs -->
    <path d="M350,150 A350,350 0 0,1 650,150" stroke-width="1" fill="none"/>
    <path d="M250,250 A300,300 0 0,1 750,250" stroke-width="1" fill="none"/>
    <path d="M250,750 A300,300 0 0,0 750,750" stroke-width="1" fill="none"/>
    <path d="M350,850 A350,350 0 0,0 650,850" stroke-width="1" fill="none"/>
    
    <!-- Connection points -->
    <circle cx="350" cy="150" r="3" fill="#4D8BF9" stroke="none"/>
    <circle cx="650" cy="150" r="3" fill="#4D8BF9" stroke="none"/>
    <circle cx="250" cy="250" r="3" fill="#4D8BF9" stroke="none"/>
    <circle cx="750" cy="250" r="3" fill="#4D8BF9" stroke="none"/>
    <circle cx="200" cy="350" r="3" fill="#4D8BF9" stroke="none"/>
    <circle cx="800" cy="350" r="3" fill="#4D8BF9" stroke="none"/>
    <circle cx="150" cy="500" r="3" fill="#4D8BF9" stroke="none"/>
    <circle cx="850" cy="500" r="3" fill="#4D8BF9" stroke="none"/>
    <circle cx="200" cy="650" r="3" fill="#4D8BF9" stroke="none"/>
    <circle cx="800" cy="650" r="3" fill="#4D8BF9" stroke="none"/>
    <circle cx="250" cy="750" r="3" fill="#4D8BF9" stroke="none"/>
    <circle cx="750" cy="750" r="3" fill="#4D8BF9" stroke="none"/>
    <circle cx="350" cy="850" r="3" fill="#4D8BF9" stroke="none"/>
    <circle cx="650" cy="850" r="3" fill="#4D8BF9" stroke="none"/>
    <circle cx="500" cy="850" r="3" fill="#4D8BF9" stroke="none"/>
    <circle cx="500" cy="150" r="3" fill="#4D8BF9" stroke="none"/>
    
    <!-- Random connecting lines for more network feel -->
    <line x1="250" y1="250" x2="350" y2="150" stroke-width="1"/>
    <line x1="750" y1="250" x2="650" y2="150" stroke-width="1"/>
    <line x1="250" y1="750" x2="350" y2="850" stroke-width="1"/>
    <line x1="750" y1="750" x2="650" y2="850" stroke-width="1"/>
    <line x1="200" y1="350" x2="250" y2="250" stroke-width="1"/>
    <line x1="800" y1="350" x2="750" y2="250" stroke-width="1"/>
    <line x1="200" y1="650" x2="250" y2="750" stroke-width="1"/>
    <line x1="800" y1="650" x2="750" y2="750" stroke-width="1"/>
    
    <!-- Additional nodes -->
    <circle cx="400" cy="200" r="2" fill="#4D8BF9" stroke="none"/>
    <circle cx="600" cy="200" r="2" fill="#4D8BF9" stroke="none"/>
    <circle cx="300" cy="300" r="2" fill="#4D8BF9" stroke="none"/>
    <circle cx="700" cy="300" r="2" fill="#4D8BF9" stroke="none"/>
    <circle cx="400" cy="800" r="2" fill="#4D8BF9" stroke="none"/>
    <circle cx="600" cy="800" r="2" fill="#4D8BF9" stroke="none"/>
    <circle cx="300" cy="700" r="2" fill="#4D8BF9" stroke="none"/>
    <circle cx="700" cy="700" r="2" fill="#4D8BF9" stroke="none"/>
    
    <!-- Connect additional nodes -->
    <line x1="400" y1="200" x2="350" y2="150" stroke-width="0.8"/>
    <line x1="400" y1="200" x2="500" y2="150" stroke-width="0.8"/>
    <line x1="600" y1="200" x2="650" y2="150" stroke-width="0.8"/>
    <line x1="600" y1="200" x2="500" y2="150" stroke-width="0.8"/>
    <line x1="300" y1="300" x2="250" y2="250" stroke-width="0.8"/>
    <line x1="300" y1="300" x2="400" y2="200" stroke-width="0.8"/>
    <line x1="700" y1="300" x2="750" y2="250" stroke-width="0.8"/>
    <line x1="700" y1="300" x2="600" y2="200" stroke-width="0.8"/>
    
    <line x1="400" y1="800" x2="350" y2="850" stroke-width="0.8"/>
    <line x1="400" y1="800" x2="500" y2="850" stroke-width="0.8"/>
    <line x1="600" y1="800" x2="650" y2="850" stroke-width="0.8"/>
    <line x1="600" y1="800" x2="500" y2="850" stroke-width="0.8"/>
    <line x1="300" y1="700" x2="250" y2="750" stroke-width="0.8"/>
    <line x1="300" y1="700" x2="400" y2="800" stroke-width="0.8"/>
    <line x1="700" y1="700" x2="750" y2="750" stroke-width="0.8"/>
    <line x1="700" y1="700" x2="600" y2="800" stroke-width="0.8"/>
  </g>
</svg>
