<?xml version="1.0" encoding="UTF-8" standalone="no"?>
<svg width="300" height="300" viewBox="0 0 300 300" xmlns="http://www.w3.org/2000/svg">
  <g fill="none" stroke="#4D8BF9" stroke-width="1.2" opacity="0.8">
    <!-- Complex neural network style visualization -->
    <!-- Nodes at different layers -->
    <!-- Input layer -->
    <circle cx="60" cy="90" r="3" fill="#4D8BF9" stroke="none"/>
    <circle cx="60" cy="130" r="3" fill="#4D8BF9" stroke="none"/>
    <circle cx="60" cy="170" r="3" fill="#4D8BF9" stroke="none"/>
    <circle cx="60" cy="210" r="3" fill="#4D8BF9" stroke="none"/>
    
    <!-- Hidden layer 1 -->
    <circle cx="120" cy="70" r="3" fill="#4D8BF9" stroke="none"/>
    <circle cx="120" cy="110" r="3" fill="#4D8BF9" stroke="none"/>
    <circle cx="120" cy="150" r="3" fill="#4D8BF9" stroke="none"/>
    <circle cx="120" cy="190" r="3" fill="#4D8BF9" stroke="none"/>
    <circle cx="120" cy="230" r="3" fill="#4D8BF9" stroke="none"/>
    
    <!-- Hidden layer 2 -->
    <circle cx="180" cy="90" r="3" fill="#4D8BF9" stroke="none"/>
    <circle cx="180" cy="130" r="3" fill="#4D8BF9" stroke="none"/>
    <circle cx="180" cy="170" r="3" fill="#4D8BF9" stroke="none"/>
    <circle cx="180" cy="210" r="3" fill="#4D8BF9" stroke="none"/>
    
    <!-- Output layer -->
    <circle cx="240" cy="110" r="3" fill="#4D8BF9" stroke="none"/>
    <circle cx="240" cy="150" r="4" fill="#4D8BF9" stroke="none"/>
    <circle cx="240" cy="190" r="3" fill="#4D8BF9" stroke="none"/>
    
    <!-- Connections from input to hidden layer 1 -->
    <line x1="60" y1="90" x2="120" y2="70" stroke-opacity="0.4"/>
    <line x1="60" y1="90" x2="120" y2="110" stroke-opacity="0.4"/>
    <line x1="60" y1="90" x2="120" y2="150" stroke-opacity="0.4"/>
    
    <line x1="60" y1="130" x2="120" y2="70" stroke-opacity="0.4"/>
    <line x1="60" y1="130" x2="120" y2="110" stroke-opacity="0.4"/>
    <line x1="60" y1="130" x2="120" y2="150" stroke-opacity="0.4"/>
    <line x1="60" y1="130" x2="120" y2="190" stroke-opacity="0.4"/>
    
    <line x1="60" y1="170" x2="120" y2="110" stroke-opacity="0.4"/>
    <line x1="60" y1="170" x2="120" y2="150" stroke-opacity="0.4"/>
    <line x1="60" y1="170" x2="120" y2="190" stroke-opacity="0.4"/>
    <line x1="60" y1="170" x2="120" y2="230" stroke-opacity="0.4"/>
    
    <line x1="60" y1="210" x2="120" y2="150" stroke-opacity="0.4"/>
    <line x1="60" y1="210" x2="120" y2="190" stroke-opacity="0.4"/>
    <line x1="60" y1="210" x2="120" y2="230" stroke-opacity="0.4"/>
    
    <!-- Connections from hidden layer 1 to hidden layer 2 -->
    <line x1="120" y1="70" x2="180" y2="90" stroke-opacity="0.4"/>
    <line x1="120" y1="70" x2="180" y2="130" stroke-opacity="0.4"/>
    
    <line x1="120" y1="110" x2="180" y2="90" stroke-opacity="0.4"/>
    <line x1="120" y1="110" x2="180" y2="130" stroke-opacity="0.4"/>
    <line x1="120" y1="110" x2="180" y2="170" stroke-opacity="0.4"/>
    
    <line x1="120" y1="150" x2="180" y2="90" stroke-opacity="0.4"/>
    <line x1="120" y1="150" x2="180" y2="130" stroke-opacity="0.4"/>
    <line x1="120" y1="150" x2="180" y2="170" stroke-opacity="0.4"/>
    <line x1="120" y1="150" x2="180" y2="210" stroke-opacity="0.4"/>
    
    <line x1="120" y1="190" x2="180" y2="130" stroke-opacity="0.4"/>
    <line x1="120" y1="190" x2="180" y2="170" stroke-opacity="0.4"/>
    <line x1="120" y1="190" x2="180" y2="210" stroke-opacity="0.4"/>
    
    <line x1="120" y1="230" x2="180" y2="170" stroke-opacity="0.4"/>
    <line x1="120" y1="230" x2="180" y2="210" stroke-opacity="0.4"/>
    
    <!-- Connections from hidden layer 2 to output -->
    <line x1="180" y1="90" x2="240" y2="110" stroke-opacity="0.4"/>
    <line x1="180" y1="90" x2="240" y2="150" stroke-opacity="0.4"/>
    
    <line x1="180" y1="130" x2="240" y2="110" stroke-opacity="0.4"/>
    <line x1="180" y1="130" x2="240" y2="150" stroke-opacity="0.4"/>
    <line x1="180" y1="130" x2="240" y2="190" stroke-opacity="0.4"/>
    
    <line x1="180" y1="170" x2="240" y2="110" stroke-opacity="0.4"/>
    <line x1="180" y1="170" x2="240" y2="150" stroke-opacity="0.4"/>
    <line x1="180" y1="170" x2="240" y2="190" stroke-opacity="0.4"/>
    
    <line x1="180" y1="210" x2="240" y2="150" stroke-opacity="0.4"/>
    <line x1="180" y1="210" x2="240" y2="190" stroke-opacity="0.4"/>
    
    <!-- Highlight connections to the center output node -->
    <line x1="180" y1="130" x2="240" y2="150" stroke="#4D8BF9" stroke-opacity="0.8" stroke-width="1.5"/>
    <line x1="180" y1="170" x2="240" y2="150" stroke="#4D8BF9" stroke-opacity="0.8" stroke-width="1.5"/>
  </g>
</svg>
