<?xml version="1.0" encoding="UTF-8" standalone="no"?>
<svg width="1200" height="1200" viewBox="0 0 1200 1200" xmlns="http://www.w3.org/2000/svg">
  <g fill="none" stroke="#4D8BF9" stroke-width="0.5" opacity="0.2">
    <!-- Nodes -->
    <circle cx="200" cy="200" r="2" fill="#4D8BF9" stroke="none"/>
    <circle cx="400" cy="150" r="2" fill="#4D8BF9" stroke="none"/>
    <circle cx="600" cy="100" r="2" fill="#4D8BF9" stroke="none"/>
    <circle cx="800" cy="200" r="2" fill="#4D8BF9" stroke="none"/>
    <circle cx="1000" cy="150" r="2" fill="#4D8BF9" stroke="none"/>
    <circle cx="200" cy="400" r="2" fill="#4D8BF9" stroke="none"/>
    <circle cx="400" cy="350" r="2" fill="#4D8BF9" stroke="none"/>
    <circle cx="600" cy="300" r="2" fill="#4D8BF9" stroke="none"/>
    <circle cx="800" cy="400" r="2" fill="#4D8BF9" stroke="none"/>
    <circle cx="1000" cy="350" r="2" fill="#4D8BF9" stroke="none"/>
    <circle cx="200" cy="600" r="2" fill="#4D8BF9" stroke="none"/>
    <circle cx="400" cy="550" r="2" fill="#4D8BF9" stroke="none"/>
    <circle cx="600" cy="500" r="2" fill="#4D8BF9" stroke="none"/>
    <circle cx="800" cy="600" r="2" fill="#4D8BF9" stroke="none"/>
    <circle cx="1000" cy="550" r="2" fill="#4D8BF9" stroke="none"/>
    <circle cx="200" cy="800" r="2" fill="#4D8BF9" stroke="none"/>
    <circle cx="400" cy="750" r="2" fill="#4D8BF9" stroke="none"/>
    <circle cx="600" cy="700" r="2" fill="#4D8BF9" stroke="none"/>
    <circle cx="800" cy="800" r="2" fill="#4D8BF9" stroke="none"/>
    <circle cx="1000" cy="750" r="2" fill="#4D8BF9" stroke="none"/>
    <circle cx="200" cy="1000" r="2" fill="#4D8BF9" stroke="none"/>
    <circle cx="400" cy="950" r="2" fill="#4D8BF9" stroke="none"/>
    <circle cx="600" cy="900" r="2" fill="#4D8BF9" stroke="none"/>
    <circle cx="800" cy="1000" r="2" fill="#4D8BF9" stroke="none"/>
    <circle cx="1000" cy="950" r="2" fill="#4D8BF9" stroke="none"/>

    <!-- Connections -->
    <line x1="200" y1="200" x2="400" y2="150" />
    <line x1="400" y1="150" x2="600" y2="100" />
    <line x1="600" y1="100" x2="800" y2="200" />
    <line x1="800" y1="200" x2="1000" y2="150" />
    <line x1="200" y1="400" x2="400" y2="350" />
    <line x1="400" y1="350" x2="600" y2="300" />
    <line x1="600" y1="300" x2="800" y2="400" />
    <line x1="800" y1="400" x2="1000" y2="350" />
    <line x1="200" y1="600" x2="400" y2="550" />
    <line x1="400" y1="550" x2="600" y2="500" />
    <line x1="600" y1="500" x2="800" y2="600" />
    <line x1="800" y1="600" x2="1000" y2="550" />
    <line x1="200" y1="800" x2="400" y2="750" />
    <line x1="400" y1="750" x2="600" y2="700" />
    <line x1="600" y1="700" x2="800" y2="800" />
    <line x1="800" y1="800" x2="1000" y2="750" />
    <line x1="200" y1="1000" x2="400" y2="950" />
    <line x1="400" y1="950" x2="600" y2="900" />
    <line x1="600" y1="900" x2="800" y2="1000" />
    <line x1="800" y1="1000" x2="1000" y2="950" />

    <!-- Vertical connections -->
    <line x1="200" y1="200" x2="200" y2="400" />
    <line x1="400" y1="150" x2="400" y2="350" />
    <line x1="600" y1="100" x2="600" y2="300" />
    <line x1="800" y1="200" x2="800" y2="400" />
    <line x1="1000" y1="150" x2="1000" y2="350" />
    <line x1="200" y1="400" x2="200" y2="600" />
    <line x1="400" y1="350" x2="400" y2="550" />
    <line x1="600" y1="300" x2="600" y2="500" />
    <line x1="800" y1="400" x2="800" y2="600" />
    <line x1="1000" y1="350" x2="1000" y2="550" />
    <line x1="200" y1="600" x2="200" y2="800" />
    <line x1="400" y1="550" x2="400" y2="750" />
    <line x1="600" y1="500" x2="600" y2="700" />
    <line x1="800" y1="600" x2="800" y2="800" />
    <line x1="1000" y1="550" x2="1000" y2="750" />
    <line x1="200" y1="800" x2="200" y2="1000" />
    <line x1="400" y1="750" x2="400" y2="950" />
    <line x1="600" y1="700" x2="600" y2="900" />
    <line x1="800" y1="800" x2="800" y2="1000" />
    <line x1="1000" y1="750" x2="1000" y2="950" />

    <!-- Diagonal connections -->
    <line x1="200" y1="200" x2="400" y2="350" />
    <line x1="400" y1="150" x2="600" y2="300" />
    <line x1="600" y1="100" x2="800" y2="400" />
    <line x1="800" y1="200" x2="1000" y2="350" />
    <line x1="200" y1="400" x2="400" y2="550" />
    <line x1="400" y1="350" x2="600" y2="500" />
    <line x1="600" y1="300" x2="800" y2="600" />
    <line x1="800" y1="400" x2="1000" y2="550" />
    <line x1="200" y1="600" x2="400" y2="750" />
    <line x1="400" y1="550" x2="600" y2="700" />
    <line x1="600" y1="500" x2="800" y2="800" />
    <line x1="800" y1="600" x2="1000" y2="750" />
    <line x1="200" y1="800" x2="400" y2="950" />
    <line x1="400" y1="750" x2="600" y2="900" />
    <line x1="600" y1="700" x2="800" y2="1000" />
    <line x1="800" y1="800" x2="1000" y2="950" />
  </g>
</svg>
