<?xml version="1.0" encoding="UTF-8" standalone="no"?>
<svg width="300" height="300" viewBox="0 0 300 300" xmlns="http://www.w3.org/2000/svg">
  <g fill="none" stroke="#4D8BF9" stroke-width="1" opacity="0.8">
    <!-- Circular knowledge graph visualization -->
    <!-- Central node -->
    <circle cx="150" cy="150" r="5" fill="#4D8BF9" stroke="none"/>
    
    <!-- Ring of nodes -->
    <circle cx="150" cy="150" r="70" stroke="#4D8BF9" stroke-opacity="0.2" stroke-dasharray="2,2" fill="none"/>
    
    <!-- Nodes on the ring -->
    <circle cx="150" cy="80" r="3" fill="#4D8BF9" stroke="none"/>
    <circle cx="185" cy="95" r="3" fill="#4D8BF9" stroke="none"/>
    <circle cx="207" cy="130" r="3" fill="#4D8BF9" stroke="none"/>
    <circle cx="207" cy="170" r="3" fill="#4D8BF9" stroke="none"/>
    <circle cx="185" cy="205" r="3" fill="#4D8BF9" stroke="none"/>
    <circle cx="150" cy="220" r="3" fill="#4D8BF9" stroke="none"/>
    <circle cx="115" cy="205" r="3" fill="#4D8BF9" stroke="none"/>
    <circle cx="93" cy="170" r="3" fill="#4D8BF9" stroke="none"/>
    <circle cx="93" cy="130" r="3" fill="#4D8BF9" stroke="none"/>
    <circle cx="115" cy="95" r="3" fill="#4D8BF9" stroke="none"/>
    
    <!-- Connections from central node to ring nodes -->
    <line x1="150" y1="150" x2="150" y2="80" stroke-opacity="0.6"/>
    <line x1="150" y1="150" x2="185" y2="95" stroke-opacity="0.6"/>
    <line x1="150" y1="150" x2="207" y2="130" stroke-opacity="0.6"/>
    <line x1="150" y1="150" x2="207" y2="170" stroke-opacity="0.6"/>
    <line x1="150" y1="150" x2="185" y2="205" stroke-opacity="0.6"/>
    <line x1="150" y1="150" x2="150" y2="220" stroke-opacity="0.6"/>
    <line x1="150" y1="150" x2="115" y2="205" stroke-opacity="0.6"/>
    <line x1="150" y1="150" x2="93" y2="170" stroke-opacity="0.6"/>
    <line x1="150" y1="150" x2="93" y2="130" stroke-opacity="0.6"/>
    <line x1="150" y1="150" x2="115" y2="95" stroke-opacity="0.6"/>
    
    <!-- Connections between adjacent ring nodes -->
    <line x1="150" y1="80" x2="185" y2="95" stroke-opacity="0.4"/>
    <line x1="185" y1="95" x2="207" y2="130" stroke-opacity="0.4"/>
    <line x1="207" y1="130" x2="207" y2="170" stroke-opacity="0.4"/>
    <line x1="207" y1="170" x2="185" y2="205" stroke-opacity="0.4"/>
    <line x1="185" y1="205" x2="150" y2="220" stroke-opacity="0.4"/>
    <line x1="150" y1="220" x2="115" y2="205" stroke-opacity="0.4"/>
    <line x1="115" y1="205" x2="93" y2="170" stroke-opacity="0.4"/>
    <line x1="93" y1="170" x2="93" y2="130" stroke-opacity="0.4"/>
    <line x1="93" y1="130" x2="115" y2="95" stroke-opacity="0.4"/>
    <line x1="115" y1="95" x2="150" y2="80" stroke-opacity="0.4"/>
    
    <!-- Outer nodes -->
    <circle cx="150" cy="50" r="2" fill="#4D8BF9" stroke="none"/>
    <circle cx="200" cy="73" r="2" fill="#4D8BF9" stroke="none"/>
    <circle cx="235" cy="120" r="2" fill="#4D8BF9" stroke="none"/>
    <circle cx="235" cy="180" r="2" fill="#4D8BF9" stroke="none"/>
    <circle cx="200" cy="227" r="2" fill="#4D8BF9" stroke="none"/>
    <circle cx="150" cy="250" r="2" fill="#4D8BF9" stroke="none"/>
    <circle cx="100" cy="227" r="2" fill="#4D8BF9" stroke="none"/>
    <circle cx="65" cy="180" r="2" fill="#4D8BF9" stroke="none"/>
    <circle cx="65" cy="120" r="2" fill="#4D8BF9" stroke="none"/>
    <circle cx="100" cy="73" r="2" fill="#4D8BF9" stroke="none"/>
    
    <!-- Connections to outer nodes -->
    <line x1="150" y1="80" x2="150" y2="50" stroke-opacity="0.2"/>
    <line x1="185" y1="95" x2="200" y2="73" stroke-opacity="0.2"/>
    <line x1="207" y1="130" x2="235" y2="120" stroke-opacity="0.2"/>
    <line x1="207" y1="170" x2="235" y2="180" stroke-opacity="0.2"/>
    <line x1="185" y1="205" x2="200" y2="227" stroke-opacity="0.2"/>
    <line x1="150" y1="220" x2="150" y2="250" stroke-opacity="0.2"/>
    <line x1="115" y1="205" x2="100" y2="227" stroke-opacity="0.2"/>
    <line x1="93" y1="170" x2="65" y2="180" stroke-opacity="0.2"/>
    <line x1="93" y1="130" x2="65" y2="120" stroke-opacity="0.2"/>
    <line x1="115" y1="95" x2="100" y2="73" stroke-opacity="0.2"/>
  </g>
</svg>
